<svg xmlns="http://www.w3.org/2000/svg" viewBox="0 0 1920 1080" role="img" aria-label="">
  <defs>
    <linearGradient id="dark" x1="0" y1="0" x2="1" y2="1">
      <stop offset="0" stop-color="#070604"/>
      <stop offset=".5" stop-color="#1b130d"/>
      <stop offset="1" stop-color="#6f4e24"/>
    </linearGradient>
    <radialGradient id="glow" cx="86%" cy="17%" r="48%">
      <stop offset="0" stop-color="#f6bf68" stop-opacity=".55"/>
      <stop offset=".35" stop-color="#b87532" stop-opacity=".22"/>
      <stop offset="1" stop-color="#000000" stop-opacity="0"/>
    </radialGradient>
    <pattern id="waves" width="92" height="46" patternUnits="userSpaceOnUse">
      <path d="M0 46c12-26 34-38 46-38s34 12 46 38M15 46c8-17 23-25 31-25s23 8 31 25M31 46c4-8 11-13 15-13s11 5 15 13" fill="none" stroke="#b99657" stroke-width="1" opacity=".18"/>
    </pattern>
    <filter id="mist"><feGaussianBlur stdDeviation="28"/></filter>
  </defs>
  <rect width="1920" height="1080" fill="url(#dark)"/>
  <rect width="1920" height="1080" fill="url(#glow)"/>
  <rect x="0" y="0" width="620" height="320" fill="url(#waves)" opacity=".35"/>
  <rect x="1080" y="710" width="840" height="370" fill="url(#waves)" opacity=".38"/>
  <g stroke="#c18d43" stroke-width="2" fill="none" opacity=".28">
    <path d="M80 170h340q24 0 24 16t-24 16H170"/>
    <path d="M1130 850h420q26 0 26 18t-26 18h-318"/>
    <path d="M1320 918h360q20 0 20 14t-20 14h-460"/>
  </g>
  <g filter="url(#mist)" opacity=".55">
    <ellipse cx="1230" cy="360" rx="280" ry="170" fill="#6b4420"/>
    <ellipse cx="1680" cy="190" rx="220" ry="180" fill="#d2974c"/>
  </g>
  <g transform="translate(1510 500)" opacity=".55">
    <path d="M-180 92c105-14 180-48 256-105 72 54 158 90 262 105-42 25-94 40-160 41-70 1-122-18-140-23-70 20-142 18-218-18Z" fill="#0e0905"/>
    <path d="M-98 150h294v32h-294z" fill="#120b06"/>
    <path d="M-48 240h190v22h-190z" fill="#0c0704"/>
  </g>
  <g transform="translate(1692 585)">
    <path d="M-40 150h80v86h-80z" fill="#1a1009"/>
    <path d="M-56 108h112v44h-112z" fill="#1c120a"/>
    <path d="M-34 120h68v24h-68z" fill="#ffc05a" opacity=".72"/>
    <path d="M-76 96c30-12 52-32 76-62 24 30 46 50 76 62-46 15-108 15-152 0Z" fill="#160e08"/>
    <path d="M-80 236h160v24h-160z" fill="#0c0704"/>
  </g>
  <circle cx="190" cy="835" r="3" fill="#e6b55b" opacity=".9"/>
  <circle cx="240" cy="872" r="2" fill="#e6b55b" opacity=".7"/>
  <circle cx="310" cy="820" r="2.5" fill="#e6b55b" opacity=".55"/>
  <rect width="1920" height="1080" fill="#000" opacity=".18"/>
</svg>
