<svg xmlns="http://www.w3.org/2000/svg" viewBox="0 0 1920 1080" role="img" aria-label="">
  <defs>
    <linearGradient id="sky" x1="0" y1="0" x2="1" y2="1">
      <stop offset="0" stop-color="#15110c"/>
      <stop offset="0.42" stop-color="#2f271d"/>
      <stop offset="0.72" stop-color="#8d6533"/>
      <stop offset="1" stop-color="#f5d792"/>
    </linearGradient>
    <radialGradient id="sun" cx="77%" cy="20%" r="44%">
      <stop offset="0" stop-color="#ffe9b2" stop-opacity="0.95"/>
      <stop offset="0.28" stop-color="#f3b85c" stop-opacity="0.45"/>
      <stop offset="1" stop-color="#2b2118" stop-opacity="0"/>
    </radialGradient>
    <linearGradient id="roof" x1="0" y1="0" x2="1" y2="1">
      <stop offset="0" stop-color="#d8b26f"/>
      <stop offset="1" stop-color="#2a2119"/>
    </linearGradient>
    <pattern id="waves" width="84" height="42" patternUnits="userSpaceOnUse">
      <path d="M0 42c10-24 32-36 42-36s32 12 42 36M14 42c7-16 21-24 28-24s21 8 28 24M28 42c4-8 10-12 14-12s10 4 14 12" fill="none" stroke="#b99657" stroke-width="1.1" opacity=".16"/>
    </pattern>
    <filter id="blur"><feGaussianBlur stdDeviation="16"/></filter>
  </defs>
  <rect width="1920" height="1080" fill="url(#sky)"/>
  <rect width="1920" height="1080" fill="url(#sun)"/>
  <rect x="0" y="560" width="760" height="520" fill="url(#waves)" opacity=".72"/>
  <g opacity=".16" stroke="#d4a852" stroke-width="2" fill="none">
    <path d="M70 790h300q28 0 28 18t-28 18H170"/>
    <path d="M40 850h470q24 0 24 15t-24 15H110"/>
    <path d="M112 910h290q18 0 18 12t-18 12H60"/>
  </g>
  <g opacity=".18" filter="url(#blur)">
    <circle cx="1370" cy="275" r="210" fill="#ffe1a2"/>
    <circle cx="1680" cy="230" r="150" fill="#fff0c4"/>
  </g>
  <g opacity=".27" fill="#10100d">
    <path d="M0 0h760c-120 88-240 170-368 245C260 322 142 388 0 430Z"/>
    <path d="M0 430c180-90 386-128 575-106 128 15 204 60 275 116-160-18-312 20-470 90C236 594 115 626 0 624Z" opacity=".68"/>
  </g>
  <g transform="translate(1180 378)">
    <path d="M-120 218h620v42h-620z" fill="#201812" opacity=".86"/>
    <path d="M-85 170h548v50h-548z" fill="#34261a"/>
    <path d="M-160 120c132-12 232-55 344-138 98 78 220 124 370 138-45 35-102 54-172 60-100 8-186-16-198-18-96 22-208 22-344-42Z" fill="url(#roof)"/>
    <path d="M-54 226h66v-96h-66zm304 0h66v-96h-66z" fill="#5c432b"/>
    <path d="M78 226h118v-102H78z" fill="#241a13"/>
    <path d="M96 142h82v70H96z" fill="#d7a357" opacity=".52"/>
    <path d="M-190 280h690v34h-690z" fill="#130f0b" opacity=".72"/>
  </g>
  <g transform="translate(1600 628)">
    <path d="M-36 146h72v88h-72z" fill="#2c2118"/>
    <path d="M-58 120h116l-28 26h-60z" fill="#594026"/>
    <path d="M-46 70h92v52h-92z" fill="#221811"/>
    <path d="M-34 82h68v30h-68z" fill="#ffc25f" opacity=".78"/>
    <path d="M-74 62c32-14 48-30 74-62 26 32 42 48 74 62-38 12-104 12-148 0Z" fill="#33251a"/>
    <path d="M-80 234h160v26h-160z" fill="#1a130e"/>
  </g>
  <g opacity=".72">
    <path d="M930 1080c114-158 202-266 306-356 162-142 344-206 540-220v576Z" fill="#1a120c" opacity=".42"/>
    <path d="M868 1080 1210 720M1010 1080l300-324M1160 1080l248-282M1310 1080l190-214" stroke="#e0b468" stroke-width="5" opacity=".22"/>
  </g>
  <rect width="1920" height="1080" fill="rgba(0,0,0,.12)"/>
</svg>
