<svg xmlns="http://www.w3.org/2000/svg" viewBox="0 0 1920 1080" role="img" aria-label="">
  <defs>
    <linearGradient id="base" x1="0" y1="0" x2="1" y2="1">
      <stop offset="0" stop-color="#fff4df"/>
      <stop offset=".48" stop-color="#f4dfba"/>
      <stop offset="1" stop-color="#c7a56c"/>
    </linearGradient>
    <radialGradient id="light" cx="50%" cy="40%" r="62%">
      <stop offset="0" stop-color="#fff8e8" stop-opacity=".9"/>
      <stop offset="1" stop-color="#c7a56c" stop-opacity="0"/>
    </radialGradient>
    <filter id="grain">
      <feTurbulence type="fractalNoise" baseFrequency=".9" numOctaves="4" stitchTiles="stitch"/>
      <feColorMatrix type="saturate" values="0"/>
      <feComponentTransfer><feFuncA type="table" tableValues="0 .16"/></feComponentTransfer>
    </filter>
    <pattern id="wave" width="90" height="45" patternUnits="userSpaceOnUse">
      <path d="M0 45c12-26 34-38 45-38s33 12 45 38M15 45c8-17 22-25 30-25s22 8 30 25M30 45c4-8 11-13 15-13s11 5 15 13" fill="none" stroke="#99733d" stroke-width="1" opacity=".17"/>
    </pattern>
  </defs>
  <rect width="1920" height="1080" fill="url(#base)"/>
  <rect width="1920" height="1080" fill="url(#light)"/>
  <rect width="1920" height="1080" filter="url(#grain)" opacity=".65"/>
  <path d="M0 720c260-95 444-112 650-36 150 55 248 50 390-16 208-98 458-96 880 24v388H0Z" fill="#7f623d" opacity=".15"/>
  <path d="M0 0h1920v210c-250 40-486 34-720-16C888 126 628 126 404 185 250 226 112 240 0 218Z" fill="#ffffff" opacity=".22"/>
  <rect x="0" y="610" width="560" height="470" fill="url(#wave)" opacity=".78"/>
  <rect x="1370" y="600" width="550" height="480" fill="url(#wave)" opacity=".48"/>
  <g fill="none" stroke="#9c763a" stroke-width="2" opacity=".16">
    <path d="M140 178h438q20 0 20 16t-20 16H220"/>
    <path d="M100 238h520q25 0 25 18t-25 18H310"/>
    <path d="M1488 720h300q24 0 24 15t-24 15h-226"/>
    <path d="M1530 782h250q18 0 18 12t-18 12h-330"/>
  </g>
</svg>
